<svg width="32" height="32" fill="none" xmlns="http://www.w3.org/2000/svg"><path d="M4.434 25.942l-3.041-7.345v7.345H1v-7.755h.633l3.053 7.378 2.888-7.378h.61v7.755H7.79v-7.291l-2.867 7.291h-.49zM10.03 22.905h4.23c-.078-1.594-.98-2.402-2.115-2.402-1.134 0-2.039.84-2.115 2.402zm4.535 1.55c-.276 1.01-1.145 1.652-2.29 1.652-1.503 0-2.647-1.066-2.647-2.962 0-1.895 1.11-2.961 2.517-2.961 1.407 0 2.528.99 2.528 3.059H10.03c.043 1.733 1.034 2.53 2.257 2.53.918 0 1.634-.473 1.863-1.314l.415-.003zM16.145 25.942v-5.597h.315l.065 1.186c.296-.939.918-1.348 1.657-1.348.193.003.384.034.568.092v.377a2.076 2.076 0 00-.6-.099c-.872-.008-1.612.9-1.612 2.223v3.166h-.393zM23.372 22.797l-1.57.26c-1.505.245-1.94.71-1.94 1.452 0 .851.664 1.26 1.58 1.26.947 0 1.926-.721 1.926-1.798l.004-1.174zm-3.73-1.054c.093-.928.928-1.56 2.106-1.56 1.177 0 2.018.669 2.018 1.8v3.963h-.32l-.063-1.007c-.339.614-1.004 1.164-2.05 1.164-1.046 0-1.877-.55-1.877-1.573 0-.937.58-1.508 2.193-1.777l1.723-.275v-.575c0-.851-.622-1.4-1.652-1.4-.948 0-1.613.517-1.69 1.24h-.387zM25.453 25.942v-7.755h.392v4.481l2.922-2.326h.545l-3.064 2.444 3.444 3.156h-.533l-3.314-3.016v3.016h-.392zM30.553 20.342h.39v5.596h-.393l.003-5.596zm-.054-2.155H31v.615h-.501v-.615z" fill="#64B145"/><path d="M12.312 13.296h-.925v3.617h.925v-3.617zM19.76 14.332a1.651 1.651 0 00-.777-.193c-.598 0-1.01.41-1.01.965 0 .538.396.965 1.01.965.27 0 .538-.065.777-.192v.973a3.031 3.031 0 01-.842.128c-1.04 0-1.952-.707-1.952-1.874 0-1.08.826-1.871 1.952-1.871.286 0 .57.044.842.13v.969zM10.118 14.332a1.633 1.633 0 00-.776-.193c-.6 0-1.01.41-1.01.965 0 .538.396.965 1.01.965.27.001.537-.065.776-.192v.973a3.026 3.026 0 01-.844.128c-1.039 0-1.948-.707-1.948-1.874 0-1.08.826-1.871 1.948-1.871.286 0 .571.044.844.13v.969zM24.6 15.104c0 1.035-.809 1.873-1.936 1.873-1.126 0-1.931-.838-1.931-1.873 0-1.035.806-1.871 1.931-1.871s1.935.838 1.935 1.87zm-1.936-.95a.952.952 0 10.956.95.938.938 0 00-.956-.95zM15.814 14.118a3.164 3.164 0 00-.72-.11c-.368 0-.572.122-.572.297 0 .22.275.296.421.344l.257.08c.599.188.872.594.872 1.035 0 .909-.81 1.214-1.516 1.214a5.61 5.61 0 01-.996-.099v-.832c.284.081.576.127.871.135.46 0 .672-.133.672-.34 0-.183-.183-.287-.413-.359l-.198-.063c-.514-.16-.942-.459-.942-1.057 0-.678.512-1.131 1.365-1.131.303.004.605.042.9.114v.772zM6.347 9.41a.459.459 0 00-.917 0v.948a.459.459 0 10.917 0V9.41zM8.865 8.163a.459.459 0 00-.918 0v2.195a.459.459 0 10.918 0V8.163zM11.383 6.459a.459.459 0 10-.917 0v4.802a.459.459 0 00.917 0V6.459zM13.903 8.163a.459.459 0 00-.918 0v2.195a.459.459 0 10.918 0V8.163zM16.42 9.41a.459.459 0 00-.918 0v.948a.459.459 0 10.917 0V9.41zM18.94 8.163a.459.459 0 00-.918 0v2.195a.459.459 0 10.918 0V8.163zM21.46 6.459a.459.459 0 10-.917 0v4.802a.459.459 0 10.918 0V6.459zM23.982 8.163a.459.459 0 00-.918 0v2.195a.459.459 0 10.918 0V8.163zM26.497 9.41a.459.459 0 10-.918 0v.948a.458.458 0 10.918 0V9.41z" fill="#939598"/></svg>