<svg width="32" height="32" fill="none" xmlns="http://www.w3.org/2000/svg"><g clip-path="url(#clip0)"><path d="M11.147 23.671H9.92v-4.865h1.228v4.865zM21.046 20.2c-.05-.026-.445-.26-1.032-.26-.794 0-1.345.553-1.345 1.298 0 .723.527 1.299 1.345 1.299.577 0 .978-.23 1.032-.258v1.305c-.154.044-.573.174-1.118.174-1.381 0-2.594-.952-2.594-2.52 0-1.453 1.097-2.518 2.594-2.518.575 0 1.002.14 1.118.174V20.2zM8.231 20.2c-.049-.026-.444-.26-1.031-.26-.795 0-1.346.553-1.346 1.298 0 .723.528 1.299 1.346 1.299.577 0 .978-.23 1.031-.258v1.305c-.152.044-.57.174-1.12.174-1.38 0-2.59-.952-2.59-2.52 0-1.453 1.097-2.518 2.59-2.518.579 0 1.005.14 1.12.174V20.2zM24.909 19.959c-.729 0-1.27.573-1.27 1.279 0 .708.541 1.28 1.27 1.28.727 0 1.27-.572 1.27-1.28 0-.706-.543-1.28-1.27-1.28zm2.57 1.279c0 1.392-1.074 2.52-2.57 2.52-1.497 0-2.57-1.128-2.57-2.52 0-1.39 1.073-2.518 2.57-2.518 1.496 0 2.57 1.128 2.57 2.518zM15.803 19.912c-.018-.006-.535-.149-.96-.149-.492 0-.76.165-.76.399 0 .296.362.4.563.463l.34.108c.796.254 1.16.8 1.16 1.392 0 1.222-1.076 1.633-2.015 1.633-.653 0-1.265-.12-1.325-.133v-1.12c.108.028.623.181 1.16.181.61 0 .89-.178.89-.454 0-.247-.242-.389-.547-.485l-.262-.084c-.683-.217-1.254-.618-1.254-1.424 0-.91.682-1.52 1.813-1.52.598 0 1.16.144 1.197.154v1.039z" fill="#C4122E"/><path d="M3.22 13.577a.609.609 0 00-1.22 0v1.277a.61.61 0 001.22 0v-1.277zM6.567 11.9a.61.61 0 00-1.219 0v2.954a.61.61 0 001.22 0v-2.953zM9.915 9.607a.61.61 0 00-1.219 0v6.461a.61.61 0 001.22 0v-6.46zM13.263 11.9a.61.61 0 00-1.22 0v2.954a.61.61 0 001.22 0v-2.953zM16.608 13.577a.607.607 0 10-1.215 0v1.277a.608.608 0 101.215 0v-1.277zM19.957 11.9a.608.608 0 00-1.215 0v2.954a.608.608 0 101.215 0v-2.953zM23.308 9.607a.608.608 0 00-1.216 0v6.461a.608.608 0 101.216 0v-6.46zM26.657 11.9a.61.61 0 00-.615-.607.608.608 0 00-.607.608v2.954c0 .337.271.608.607.608a.61.61 0 00.615-.608V11.9zM30 13.577a.608.608 0 00-1.216 0v1.277a.609.609 0 101.216 0v-1.277z" fill="#15495D"/><path d="M29.297 23.03v.077h-.217v.564h-.089v-.564h-.218v-.076h.524zM29.343 23.03h.14l.191.526h.003l.186-.526H30v.641h-.092v-.525h-.003l-.194.525h-.085l-.19-.525h-.004v.525h-.09v-.64z" fill="#C4122E"/></g><defs><clipPath id="clip0"><path fill="#fff" d="M2 9h28v14.758H2z"/></clipPath></defs></svg>