<svg width="96" height="96" viewBox="0 0 96 96" fill="none" xmlns="http://www.w3.org/2000/svg">
  <path d="M95.974 43.876C95.962 43.694 95.928 43.52 95.868 43.348C95.846 43.284 95.83 43.222 95.802 43.16C95.706 42.952 95.584 42.756 95.416 42.59C95.414 42.588 95.414 42.588 95.414 42.588L84 31.172V20C84 19.956 83.978 19.918 83.974 19.874C83.962 19.698 83.928 19.528 83.872 19.36C83.85 19.296 83.834 19.234 83.804 19.172C83.706 18.96 83.584 18.758 83.412 18.586L65.412 0.586C65.24 0.414 65.038 0.29 64.824 0.194C64.764 0.166 64.704 0.15 64.642 0.13C64.472 0.07 64.298 0.036 64.116 0.026C64.078 0.02 64.042 0 64 0H14C12.896 0 12 0.896 12 2V31.172L0.586 42.586C0.586 42.586 0.584 42.588 0.582 42.59C0.414 42.758 0.294 42.954 0.198 43.16C0.17 43.222 0.154 43.284 0.132 43.348C0.072 43.52 0.036 43.694 0.026 43.876C0.022 43.92 0 43.956 0 44V82C0 83.104 0.896 84 2 84H12V94C12 95.104 12.896 96 14 96H82C83.104 96 84 95.104 84 94V84H94C95.104 84 96 83.104 96 82V44C96 43.956 95.978 43.92 95.974 43.876ZM89.172 42H84V36.828L89.172 42ZM77.172 18H66V6.828L77.172 18ZM16 4H62V20C62 21.104 62.896 22 64 22H80V32V42H16V32V4ZM12 36.828V42H6.828L12 36.828ZM80 92H16V84H80V92ZM92 80H4V46H14H82H92V80Z" fill="black" />
  <path d="M34.3164 54.1152C32.9453 54.1152 31.8613 54.918 31.0645 56.5234C30.2793 58.1289 29.8867 60.3613 29.8867 63.2207C29.8867 69.1738 31.4395 72.1504 34.5449 72.1504C35.9043 72.1504 37.3281 71.7168 38.8164 70.8496V75.1035C37.5625 75.9355 35.957 76.3516 34 76.3516C31.1055 76.3516 28.8789 75.2031 27.3203 72.9062C25.7734 70.5977 25 67.3574 25 63.1855C25 59.0137 25.7969 55.7617 27.3906 53.4297C28.9961 51.0977 31.2227 49.9316 34.0703 49.9316C35.0078 49.9316 35.9043 50.0605 36.7598 50.3184C37.627 50.5762 38.5527 51.0273 39.5371 51.6719L37.9551 55.5566C37.4277 55.1934 36.8652 54.8652 36.2676 54.5723C35.6699 54.2676 35.0195 54.1152 34.3164 54.1152Z" fill="black" />
  <path d="M54.3991 76H42.8151V50.3008H54.3991V54.4316H47.5963V60.5488H53.9069V64.6973H47.5963V71.8164H54.3991V76Z" fill="black" />
  <path d="M63.2493 76H58.5032V50.3008H70.0169V54.4316H63.2493V61.5684H69.5598V65.6992H63.2493V76Z" fill="black" />
</svg>
  