<svg width="32" height="32" fill="none" xmlns="http://www.w3.org/2000/svg"><path d="M13.4 16.236h1.742l-.924-1.489-1.688 2.69h-.769l2.059-3.227a.479.479 0 01.404-.21c.16 0 .31.078.398.205l2.07 3.231h-.775l-.36-.603h-1.77l-.388-.597zm8.012.597v-2.8h-.653v3.077c0 .083.033.166.094.227.066.06.15.1.238.1h2.982l.388-.598h-3.05v-.006zm-10.824-.498a1.15 1.15 0 100-2.302h-2.86v3.403h.652v-2.805h2.164c.304 0 .548.243.548.553a.55.55 0 01-.548.554H8.7l1.948 1.698h.952l-1.312-1.1h.3zm-6.89 1.101a1.7 1.7 0 010-3.397h1.976a1.7 1.7 0 010 3.397H3.7zm1.932-.597a1.1 1.1 0 100-2.203H3.738a1.1 1.1 0 100 2.203H5.63zm12.423.597a1.7 1.7 0 010-3.397h2.352l-.388.597h-1.92a1.1 1.1 0 100 2.203h2.357l-.381.597h-2.02zm8.007-.597c-.503 0-.93-.338-1.057-.803h2.795l.387-.597h-3.182a1.095 1.095 0 011.063-.803h1.92l.387-.597h-2.352a1.7 1.7 0 000 3.397h2.02l.387-.597H26.06zm2.656-2.441c0-.166.133-.298.299-.298.166 0 .299.132.299.298a.298.298 0 01-.299.3.298.298 0 01-.299-.3zm.299.382a.383.383 0 000-.763.383.383 0 000 .763zm-.039-.608c.061 0 .083 0 .11.01a.122.122 0 01.084.122c0 .006 0 .022-.006.034-.005.016-.01.05-.055.072-.006.005-.006.005-.017.01l.1.178h-.094l-.088-.166h-.056v.166h-.083v-.427h.105zm.034.193c.027 0 .055 0 .071-.027a.079.079 0 00.012-.04c0-.021-.012-.043-.034-.049-.016-.006-.039-.006-.077-.006h-.022v.122h.05z" fill="#ED1C24"/></svg>