<svg width="32" height="32" fill="none" xmlns="http://www.w3.org/2000/svg"><g clip-path="url(#clip0)" fill-rule="evenodd" clip-rule="evenodd"><path d="M2.5 22.696h13.992L30.185 9H2.5v13.696z" fill="url(#paint0_linear)"/><path d="M18.93 11.74h-2.734l.009 6.43-2.381-6.433h-2.361L9.431 17.11c-.217-1.367-1.63-1.84-2.742-2.193-.734-.236-1.514-.582-1.506-.966.006-.315.417-.607 1.234-.563.547.03 1.031.074 1.994.539l.947-1.65c-.878-.447-2.092-.729-3.087-.73h-.006c-1.16 0-2.127.376-2.726.996a2.297 2.297 0 00-.652 1.59c-.015.836.291 1.428.935 1.902.545.399 1.24.658 1.854.848.756.234 1.374.438 1.366.872a.643.643 0 01-.18.425c-.188.195-.477.268-.877.276-.772.017-1.345-.105-2.256-.644l-.843 1.67a5.845 5.845 0 002.977.779l.247-.002c.956-.017 1.732-.247 2.35-.743l.099-.085-.104.533 2.307-.008.414-1.06c.435.15.93.231 1.456.231.512 0 .993-.078 1.42-.217l.289 1.046 4.139.004.01-2.416h.88c2.13 0 3.388-1.083 3.388-2.9 0-2.024-1.224-2.905-3.828-2.905zm-6.298 5.496c-.318 0-.617-.055-.873-.153l.863-2.725h.017l.849 2.733a2.556 2.556 0 01-.857.145zm6.458-1.566h-.6v-2.196h.6c.8 0 1.44.267 1.44 1.084 0 .846-.64 1.112-1.44 1.112" fill="#fff"/></g><defs><linearGradient id="paint0_linear" x1="16.343" y1="9" x2="16.343" y2="22.696" gradientUnits="userSpaceOnUse"><stop stop-color="#00AEEF"/><stop offset=".212" stop-color="#0097DC"/><stop offset=".519" stop-color="#007CC5"/><stop offset=".792" stop-color="#006CB8"/><stop offset="1" stop-color="#0066B3"/></linearGradient><clipPath id="clip0"><path fill="#fff" d="M2.5 9h28v13.696h-28z"/></clipPath></defs></svg>