<svg xmlns="http://www.w3.org/2000/svg" viewBox="0 0 76.9773 78.2188"><defs><style>.a{fill:#231f20;}.b{fill:#00a0dd;}.c{fill:#65656a;}</style></defs><path class="a" d="M67.8252,43.2149l1.6866-5.5V.0469C49.8106.0469,47.76,7.6006,47.76,14.8155V56.1836a35.2174,35.2174,0,0,1-.6416,6.6406c10.4463-1.9033,17.2588-8.3613,20.707-19.6093"/><rect class="b" x="13.045" y="4.3467" width="4.3535" height="4.2998"/><rect class="b" x="17.3985" y="10.8428" width="4.3496" height="4.3037"/><rect class="b" x="13.0723" y="16.2549" width="4.3008" height="4.2998"/><rect class="b" x="8.7227" y="22.7051" width="4.3018" height="4.3018"/><rect class="b" width="4.3497" height="4.3467"/><path class="b" d="M8.7012,31.3037H13.045v9.583h4.3535V24.8555h4.35V56.1836c0,14.8653,13.0078,22.0352,13.0078,22.0352C12.9043,78.2188,0,64.9707,0,47.3457v-35.45H4.3467v23.708H8.7012Z"/><path class="c" d="M37.8067,65.1446A28.0542,28.0542,0,0,1,24.084,61.2793c2.3418,10.1641,11.0987,15.1572,11.5235,15.3946l2.581,1.4248c19.7588-1.3213,31.3233-14.0752,31.3233-30.753V43.7305c-4.6973,15.32-15.6289,22.1387-31.7051,21.4141"/><rect class="b" x="8.7227" y="8.6934" width="4.2988" height="4.2988"/><path class="a" d="M74.3508.0156A2.6195,2.6195,0,1,1,71.71,2.6211,2.605,2.605,0,0,1,74.3508.0156Zm0,4.8535a2.1608,2.1608,0,0,0,2.15-2.248,2.1579,2.1579,0,1,0-4.3139,0A2.1635,2.1635,0,0,0,74.3508,4.8691Zm-1.0224-3.768h1.1835c.7281,0,1.0713.2871,1.0713.8755a.7875.7875,0,0,1-.8051.8335l.8754,1.3515h-.5112l-.8335-1.3164h-.5044V4.1616h-.476Zm.476,1.3589h.4971c.42,0,.8057-.021.8057-.5044,0-.4063-.35-.4693-.6724-.4693h-.63Z"/></svg>